<?xml version="1.0" standalone="no"?>
<!DOCTYPE svg PUBLIC "-//W3C//DTD SVG 20010904//EN"
 "http://www.w3.org/TR/2001/REC-SVG-20010904/DTD/svg10.dtd">
<svg version="1.0" xmlns="http://www.w3.org/2000/svg"
 width="2000.000000pt" height="1500.000000pt" viewBox="0 0 2000.000000 1500.000000"
 preserveAspectRatio="xMidYMid meet">

<g transform="translate(0.000000,1500.000000) scale(0.100000,-0.100000)"
fill="#000000" stroke="none">
<path d="M0 7500 l0 -7500 10000 0 10000 0 0 7500 0 7500 -10000 0 -10000 0 0
-7500z m10515 4606 c846 -105 1590 -399 2250 -890 436 -325 831 -748 1128
-1208 61 -94 137 -224 137 -232 0 -3 -19 -6 -43 -6 -42 0 -43 1 -82 68 -151
262 -401 591 -635 836 -274 286 -663 590 -1015 792 -511 293 -1083 483 -1700
566 -151 20 -212 23 -550 23 -398 0 -482 -6 -775 -56 -1124 -193 -2140 -808
-2837 -1719 -88 -115 -237 -336 -298 -442 -39 -67 -40 -68 -82 -68 -24 0 -43
3 -43 6 0 25 211 349 332 511 179 239 465 544 693 738 396 339 876 622 1365
808 365 138 820 245 1180 276 69 6 139 13 155 15 80 11 698 -3 820 -18z
m-1975 -2592 c125 -68 183 -199 145 -329 -22 -78 -105 -164 -184 -190 -104
-34 -207 -7 -287 77 -55 57 -75 99 -81 168 -8 87 17 152 87 222 93 93 210 112
320 52z m3073 8 c145 -64 211 -238 143 -375 -47 -98 -136 -158 -244 -165 -55
-4 -71 -1 -127 27 -106 52 -167 144 -167 252 0 159 144 297 299 285 28 -3 72
-13 96 -24z m-2092 -635 c27 -14 57 -42 77 -71 60 -90 38 -201 -55 -272 -83
-63 -177 -54 -254 25 -76 79 -84 167 -22 254 58 83 166 110 254 64z m928 4
c158 -81 159 -283 1 -364 -66 -34 -118 -32 -186 8 -108 63 -132 202 -53 298
61 74 159 98 238 58z m-1639 -36 c101 -36 170 -131 170 -234 0 -51 -201 -1107
-220 -1155 -19 -50 -71 -104 -121 -130 -51 -25 -59 -26 -221 -26 -181 0 -209
6 -275 56 -68 52 -74 71 -189 654 -64 327 -107 568 -107 602 2 100 72 198 168
232 60 22 734 22 795 1z m2818 -22 c25 -15 59 -47 75 -70 17 -23 120 -278 239
-589 191 -498 210 -555 210 -611 0 -43 -6 -75 -22 -107 -27 -56 -96 -119 -148
-134 -28 -9 -173 -12 -488 -12 l-449 0 -50 24 c-93 43 -145 125 -145 230 0 57
18 110 209 610 115 301 221 565 236 586 29 42 87 86 131 100 55 18 151 5 202
-27z m-2118 -428 c62 -33 78 -65 233 -466 171 -446 176 -469 124 -547 -53 -81
-61 -82 -437 -82 -305 0 -334 1 -368 19 -20 10 -45 27 -54 38 -25 28 -48 88
-48 127 0 28 275 771 308 832 19 35 77 82 112 93 40 11 92 6 130 -14z m1125
14 c85 -24 135 -89 135 -175 0 -26 -34 -220 -76 -433 -83 -424 -89 -443 -164
-481 -33 -17 -59 -20 -159 -20 -66 0 -132 5 -148 11 -36 13 -89 64 -102 98
-16 40 -161 784 -161 825 0 75 52 145 126 171 50 18 488 21 549 4z m-3087
-856 l3 -43 -1090 0 -1091 0 0 45 0 45 1088 -2 1087 -3 3 -42z m7082 2 l0 -45
-1090 0 -1090 0 0 38 c0 21 3 42 7 45 3 4 494 7 1090 7 l1083 0 0 -45z m-7085
-175 l0 -45 -1085 0 -1085 0 -3 33 c-2 19 -1 40 2 48 5 12 164 14 1088 12
l1083 -3 0 -45z m7080 0 l0 -45 -1085 0 -1085 0 -3 33 c-2 19 -1 40 2 48 5 12
164 14 1088 12 l1083 -3 0 -45z m-7641 -332 c14 -20 16 -80 16 -460 l0 -437
45 -7 c85 -12 45 -24 -85 -24 -127 0 -169 11 -90 24 l40 6 0 445 0 445 -40 0
c-38 0 -49 8 -33 23 3 4 35 7 69 7 54 0 65 -3 78 -22z m720 6 c14 -14 16 -69
16 -460 l0 -444 45 0 c57 0 63 -24 8 -34 -68 -11 -102 -7 -124 15 -19 19 -23
20 -58 6 -138 -56 -302 -8 -359 105 -46 91 -46 262 1 355 27 53 85 111 138
139 60 30 166 30 242 -1 16 -7 17 4 17 149 l0 156 -40 0 c-38 0 -49 8 -33 23
14 15 131 7 147 -9z m4724 4 c9 -9 12 -120 12 -437 0 -235 3 -436 6 -448 5
-19 13 -23 50 -23 31 0 44 -4 44 -14 0 -10 -19 -16 -66 -21 -58 -7 -69 -5 -94
14 -27 20 -30 20 -67 4 -59 -25 -176 -22 -239 6 -105 46 -148 124 -148 271 -1
122 20 186 83 253 82 89 195 119 301 82 23 -8 44 -15 46 -15 2 0 4 70 4 155
l0 155 -45 0 c-43 0 -60 12 -32 23 25 11 133 7 145 -5z m1750 0 c9 -9 12 -125
12 -459 l0 -447 50 -7 c91 -13 52 -25 -80 -25 -127 0 -169 11 -90 24 l40 6 -2
443 -3 442 -42 3 c-42 3 -56 15 -30 25 25 11 133 7 145 -5z m340 0 c9 -9 12
-125 12 -459 l0 -447 50 -7 c91 -13 52 -25 -80 -25 -131 0 -162 9 -92 26 l37
9 0 440 0 440 -42 3 c-42 3 -56 15 -30 25 25 11 133 7 145 -5z m-674 -40 c29
-41 13 -82 -36 -93 -31 -8 -68 23 -68 57 0 53 74 79 104 36z m-7892 -28 c34
-10 37 -14 42 -53 15 -120 15 -145 1 -150 -15 -6 -25 21 -25 68 -1 59 -10 72
-73 101 -91 42 -181 41 -257 -2 -100 -57 -151 -156 -171 -333 -9 -75 -9 -123
0 -191 27 -211 100 -290 267 -290 43 0 103 3 132 6 l52 7 0 153 0 153 -50 3
c-28 2 -51 8 -53 13 -1 6 44 11 116 13 93 2 118 0 115 -10 -3 -7 -14 -14 -26
-16 -21 -3 -22 -7 -22 -157 0 -85 -4 -156 -9 -159 -20 -13 -165 -29 -262 -30
-102 -1 -108 0 -175 34 -84 43 -125 94 -156 193 -29 94 -31 280 -4 372 43 146
136 245 265 282 52 15 233 11 293 -7z m4294 9 c93 -16 92 -15 98 -67 12 -102
11 -137 -4 -137 -11 0 -17 16 -21 52 -10 76 -13 81 -76 111 -78 36 -176 38
-246 3 -95 -46 -156 -156 -178 -318 -23 -175 9 -358 77 -433 55 -60 102 -74
240 -68 83 4 119 9 125 19 5 8 8 77 6 154 l-2 140 -49 5 c-28 3 -51 11 -54 18
-3 10 22 12 115 10 70 -2 118 -7 118 -13 0 -5 -10 -11 -22 -13 -23 -3 -23 -5
-23 -157 0 -85 -4 -156 -9 -159 -19 -12 -162 -29 -251 -30 -151 -2 -234 34
-297 128 -45 66 -64 133 -70 251 -13 257 90 441 280 500 52 17 163 19 243 4z
m-3689 -254 c137 -41 214 -194 183 -366 -21 -114 -75 -190 -168 -236 -49 -24
-69 -28 -137 -27 -144 1 -246 71 -281 190 -25 85 -15 215 20 288 33 67 103
131 165 150 61 19 156 19 218 1z m1766 4 c44 -12 102 -59 123 -101 20 -38 35
-131 27 -169 l-5 -29 -226 0 -225 0 5 -79 c8 -136 63 -211 166 -227 41 -6 139
3 226 23 20 4 27 3 22 -5 -14 -23 -120 -46 -211 -46 -107 0 -175 24 -229 84
-49 54 -61 99 -61 220 0 92 3 112 26 161 66 141 213 210 362 168z m377 1 c10
-5 20 -20 24 -33 l6 -24 62 31 c54 27 73 31 144 31 89 0 115 -11 158 -69 20
-26 21 -43 24 -281 l3 -254 49 -7 c91 -12 51 -24 -80 -24 -126 0 -167 11 -95
24 l35 7 0 235 c0 257 -5 287 -56 321 -40 26 -126 22 -189 -8 l-50 -24 -3
-262 -2 -262 45 -6 c85 -13 45 -25 -85 -25 -127 0 -169 11 -90 24 l40 6 0 285
0 284 -42 3 c-52 4 -53 21 -1 29 61 10 83 10 103 -1z m2206 -5 c61 -18 127
-73 156 -129 34 -64 38 -230 8 -310 -27 -71 -90 -138 -158 -169 -68 -30 -188
-30 -259 2 -72 32 -128 95 -149 167 -23 79 -16 210 16 282 27 63 102 134 163
155 55 20 160 21 223 2z m706 5 c66 -19 130 -70 163 -130 24 -46 30 -70 33
-141 9 -188 -73 -315 -229 -355 -153 -39 -310 34 -354 166 -22 67 -23 187 -1
262 22 76 97 159 169 187 58 22 159 27 219 11z m1228 -5 c0 -11 -12 -15 -44
-15 l-43 0 81 -269 c45 -148 84 -272 87 -275 3 -3 45 122 94 278 74 237 93
286 109 290 12 3 23 2 27 -2 3 -4 38 -133 78 -287 40 -154 76 -286 80 -293 4
-7 50 109 104 264 104 297 104 294 40 294 -23 0 -33 5 -33 16 0 13 24 15 188
13 138 -1 193 -6 210 -16 22 -13 22 -13 22 -302 l0 -289 50 -7 c91 -13 52 -25
-80 -25 -131 0 -162 9 -92 26 l37 9 3 274 c1 162 -2 279 -7 284 -16 16 -180
14 -190 -2 -5 -7 -57 -143 -117 -302 l-109 -289 -42 0 c-31 0 -43 4 -47 18 -2
9 -35 120 -72 245 l-67 229 -23 -64 c-13 -34 -51 -145 -85 -245 l-61 -183 -41
0 -42 0 -99 298 c-54 163 -104 300 -110 304 -6 4 -26 8 -43 8 -31 0 -41 9 -26
23 3 4 64 7 135 7 107 0 128 -2 128 -15z m202 -1006 c-3 -149 -3 -152 17 -146
25 6 27 -5 5 -27 -19 -20 -29 -20 -48 -1 -14 14 -18 14 -45 0 -22 -11 -37 -12
-55 -5 -93 35 -59 190 46 206 36 6 38 8 38 45 0 26 -6 41 -17 48 -15 8 -16 10
-3 15 8 2 22 7 30 9 8 3 20 6 25 6 6 1 9 -54 7 -150z m454 76 l-7 -76 30 15
c77 40 143 -61 94 -145 -26 -44 -93 -70 -137 -53 -14 5 -16 28 -16 144 0 110
-3 142 -15 154 -21 20 -19 24 13 29 15 2 31 5 36 6 5 0 6 -32 2 -74z m347 -80
c-5 -140 -4 -155 10 -155 10 0 17 -4 17 -10 0 -5 -13 -10 -29 -10 -16 0 -36
-3 -45 -6 -10 -4 -16 -1 -16 9 0 8 6 17 13 19 8 3 13 41 15 130 3 104 1 127
-12 141 -22 21 -20 25 12 30 15 2 30 5 34 6 3 0 4 -69 1 -154z m-6904 121 c9
-11 8 -18 -5 -31 -15 -15 -18 -15 -32 -1 -13 12 -13 18 -2 30 15 20 24 20 39
2z m4689 -13 c4 -25 -22 -37 -38 -17 -10 11 -10 17 0 29 17 20 34 14 38 -12z
m2098 12 c8 -20 -13 -45 -32 -38 -17 6 -19 39 -1 46 21 9 27 7 33 -8z m232
-12 c4 -25 -22 -37 -38 -17 -10 11 -10 17 0 29 17 20 34 14 38 -12z m270 0 c4
-25 -22 -37 -38 -17 -10 11 -10 17 0 29 17 20 34 14 38 -12z m-8622 -5 c2 -2
1 -21 -3 -41 -6 -39 -33 -53 -33 -17 0 48 -93 50 -130 3 -38 -49 -20 -166 29
-193 47 -25 97 -6 114 43 4 9 11 17 17 17 11 0 13 -23 4 -57 -12 -44 -123 -54
-180 -17 -12 8 -30 34 -39 57 -31 78 4 169 80 204 26 12 129 12 141 1z m2059
3 c3 -6 -1 -13 -8 -18 -8 -4 -17 -29 -21 -55 l-7 -48 70 0 71 0 0 50 c0 38 -4
50 -15 50 -8 0 -15 5 -15 10 0 6 12 10 28 10 15 0 37 3 50 6 16 5 22 2 22 -9
0 -8 -6 -17 -14 -20 -10 -4 -15 -33 -18 -109 -5 -112 -3 -128 18 -128 8 0 14
-4 14 -10 0 -5 -25 -10 -55 -10 -30 0 -55 5 -55 10 0 6 6 10 14 10 18 0 26 22
26 71 l0 39 -70 0 -70 0 0 -51 c0 -42 3 -52 20 -56 34 -9 22 -23 -19 -23 -22
0 -46 -3 -55 -6 -10 -4 -16 -1 -16 9 0 8 7 17 15 21 12 4 15 27 15 121 0 96
-3 115 -15 115 -35 0 -11 19 28 23 23 2 45 4 49 5 4 1 9 -2 13 -7z m1329 -3
c3 -7 21 -66 41 -131 28 -94 40 -120 58 -126 27 -11 12 -17 -55 -24 -36 -3
-48 -1 -48 9 0 8 6 14 14 14 21 0 24 11 14 48 -8 30 -11 32 -54 32 -39 0 -46
-3 -54 -26 -16 -41 -12 -54 15 -54 14 0 25 -4 25 -10 0 -6 -27 -10 -62 -10
l-61 0 20 23 c12 12 40 71 62 131 23 60 46 115 52 123 14 16 28 17 33 1z
m1371 0 c3 -2 2 -21 -2 -41 -6 -42 -33 -52 -33 -13 0 48 -102 46 -141 -2 -18
-23 -20 -37 -17 -91 4 -54 8 -67 32 -87 26 -23 68 -30 100 -18 11 4 16 19 16
45 0 35 -3 39 -25 39 -16 0 -25 6 -25 15 0 11 12 15 51 15 43 0 50 -3 45 -16
-3 -9 -6 -37 -6 -64 l0 -48 -44 -11 c-60 -15 -82 -14 -123 6 -74 35 -93 155
-35 224 38 46 77 60 145 55 32 -2 60 -6 62 -8z m2992 -113 c22 -77 42 -126 55
-138 12 -10 19 -19 17 -21 -2 -2 -28 -6 -57 -8 -52 -5 -83 8 -43 19 22 5 25
21 15 61 -5 19 -13 22 -50 22 -39 0 -46 -3 -54 -26 -16 -41 -12 -54 16 -54 14
0 24 -5 22 -11 -2 -6 -7 -10 -11 -10 -4 1 -30 1 -59 1 l-51 0 20 23 c11 12 40
74 64 137 42 112 54 133 73 127 5 -2 24 -57 43 -122z m-6567 50 c0 -10 10 -15
30 -15 20 0 30 -5 30 -15 0 -11 -11 -15 -35 -15 l-36 0 3 -67 3 -68 35 -5 35
-5 -28 -19 c-23 -15 -32 -17 -52 -8 -24 11 -25 16 -25 91 0 61 -3 80 -15 85
-22 8 -18 19 13 38 34 22 42 22 42 3z m1720 0 c0 -10 10 -15 30 -15 20 0 30
-5 30 -15 0 -11 -11 -15 -35 -15 l-36 0 3 -67 3 -68 35 -5 35 -5 -28 -19 c-22
-15 -33 -17 -51 -8 -26 11 -36 47 -36 121 0 26 -5 52 -12 59 -8 8 -5 16 13 31
29 24 49 27 49 6z m2970 0 c0 -10 10 -15 30 -15 20 0 30 -5 30 -15 0 -11 -11
-15 -35 -15 l-36 0 3 -67 3 -68 35 -5 35 -5 -28 -19 c-23 -15 -32 -17 -52 -8
-23 11 -25 17 -25 83 0 53 -4 77 -16 91 -16 16 -15 19 7 37 29 24 49 27 49 6z
m2600 0 c0 -10 10 -15 30 -15 20 0 30 -5 30 -15 0 -11 -11 -15 -35 -15 l-36 0
3 -67 3 -68 35 -5 35 -5 -28 -19 c-23 -15 -32 -17 -52 -8 -23 11 -25 17 -25
83 0 53 -4 77 -16 91 -16 16 -15 19 7 37 29 24 49 27 49 6z m-8277 -34 c45
-45 27 -145 -33 -176 -43 -22 -68 -19 -101 14 -23 23 -29 38 -29 71 0 52 13
76 53 101 37 23 82 19 110 -10z m127 14 c0 -13 5 -12 34 2 32 15 37 15 60 -1
24 -15 26 -22 26 -96 0 -64 3 -80 15 -80 8 0 15 -4 15 -10 0 -5 -13 -10 -29
-10 -16 0 -36 -3 -45 -6 -11 -4 -16 -1 -16 10 0 9 5 16 10 16 7 0 10 27 8 73
-3 69 -4 72 -28 75 -39 4 -49 -10 -56 -76 -6 -52 -4 -63 10 -68 31 -12 16 -24
-31 -24 -44 0 -45 1 -30 18 24 27 24 137 0 151 -26 14 -3 32 50 40 4 0 7 -6 7
-14z m275 2 c31 15 36 15 59 -1 24 -15 26 -22 26 -96 0 -64 3 -80 15 -80 8 0
15 -4 15 -10 0 -5 -13 -10 -29 -10 -16 0 -36 -3 -45 -6 -11 -4 -16 -1 -16 10
0 9 5 16 10 16 7 0 10 27 8 73 -3 69 -4 72 -29 75 -35 4 -47 -13 -49 -73 -3
-69 -2 -75 16 -75 8 0 12 -4 9 -10 -3 -5 -27 -10 -52 -10 -44 0 -45 1 -30 18
24 27 24 147 0 156 -10 4 -13 10 -7 15 15 15 59 17 62 4 2 -9 12 -8 37 4z
m293 -15 c7 -9 12 -28 10 -42 -3 -23 -7 -25 -65 -28 -69 -3 -79 -15 -47 -61
14 -20 23 -23 60 -18 44 5 55 -2 32 -21 -59 -46 -148 1 -148 78 0 35 31 90 59
105 31 18 81 12 99 -13z m198 15 c6 -6 -8 -67 -15 -67 -3 0 -11 10 -16 23 -14
31 -49 34 -69 5 -21 -29 -20 -77 0 -107 14 -20 23 -22 55 -18 50 7 59 -7 19
-28 -87 -45 -163 52 -115 145 20 39 62 61 104 56 18 -3 35 -7 37 -9z m245 -87
c-2 -76 0 -90 13 -90 9 0 16 -4 16 -10 0 -5 -13 -10 -29 -10 -16 0 -36 -3 -45
-6 -11 -4 -16 -1 -16 10 0 9 5 16 10 16 6 0 10 32 10 75 0 43 -4 75 -10 75 -5
0 -10 6 -10 14 0 12 46 27 59 19 2 -1 3 -43 2 -93z m129 85 c0 -13 5 -12 34 2
32 15 37 15 60 -1 24 -15 26 -22 26 -96 0 -69 2 -80 17 -80 32 0 -1 -18 -37
-20 -52 -3 -57 -1 -37 14 15 12 17 26 15 82 -3 65 -4 69 -28 72 -41 4 -53 -12
-58 -77 -4 -49 -1 -62 12 -67 31 -12 16 -24 -31 -24 -44 0 -45 1 -30 18 24 27
24 137 0 151 -26 14 -3 32 50 40 4 0 7 -6 7 -14z m370 3 c0 -5 -9 -12 -19 -15
-16 -4 -18 -10 -12 -27 17 -43 -26 -97 -78 -98 -31 -1 -49 -13 -37 -25 3 -3
29 -10 57 -14 28 -4 57 -13 65 -20 54 -44 -61 -133 -131 -101 -35 16 -43 52
-16 73 l22 18 -21 11 c-24 13 -27 45 -4 54 14 5 14 8 0 28 -9 12 -16 32 -16
43 0 26 27 64 51 73 30 11 139 11 139 0z m588 -16 c7 -9 12 -28 10 -42 -3 -23
-7 -25 -65 -28 -69 -3 -79 -15 -47 -61 14 -20 23 -23 61 -18 24 2 45 1 48 -3
5 -8 -54 -40 -74 -40 -43 0 -91 53 -91 100 0 35 31 90 59 105 31 18 81 12 99
-13z m180 0 c10 -12 11 -36 6 -86 l-6 -69 26 5 c30 6 32 1 9 -24 -20 -22 -36
-23 -53 -3 -10 12 -16 13 -38 1 -33 -17 -70 -3 -78 31 -8 32 8 49 61 62 44 11
52 22 39 55 -7 18 -59 22 -69 6 -7 -11 -25 -4 -25 9 0 4 15 15 33 24 36 18 76
14 95 -11z m142 2 c0 -12 5 -11 26 5 32 25 44 20 44 -19 0 -34 -15 -47 -28
-25 -13 24 -39 8 -46 -27 -12 -59 -7 -90 14 -95 38 -10 20 -23 -32 -23 -49 0
-50 1 -35 18 24 26 24 152 1 152 -24 0 -11 24 17 31 29 7 39 3 39 -17z m369
17 c9 -6 11 -18 7 -35 -8 -31 -22 -34 -29 -5 -4 15 -12 20 -29 17 -37 -5 -33
-32 11 -61 22 -15 45 -35 50 -46 22 -40 -54 -93 -109 -76 -15 5 -20 15 -20 41
0 40 15 45 24 9 5 -20 13 -25 36 -25 41 0 48 19 17 44 -15 12 -39 30 -53 42
-22 16 -26 26 -20 47 10 42 79 71 115 48z m525 3 c21 -8 22 -74 2 -74 -8 0
-16 10 -18 23 -4 27 -39 34 -62 12 -22 -22 -21 -98 1 -120 12 -12 27 -16 55
-12 44 6 49 -5 13 -29 -55 -36 -125 14 -125 91 0 76 70 133 134 109z m118 -27
c-5 -21 -5 -21 12 -4 24 23 52 38 60 30 10 -10 7 -61 -4 -68 -6 -3 -13 1 -16
9 -3 9 -12 16 -20 16 -20 0 -34 -34 -34 -85 0 -38 4 -48 20 -52 38 -10 20 -23
-31 -23 -50 0 -50 0 -35 22 23 33 22 134 -1 147 -20 11 -10 27 22 33 28 6 34
1 27 -25z m267 -4 c19 -22 22 -34 18 -76 -5 -59 -36 -95 -90 -104 -31 -5 -40
-1 -67 25 -22 23 -30 40 -30 67 0 105 105 160 169 88z m179 28 c9 -5 11 -17 6
-34 -7 -32 -20 -35 -27 -7 -3 13 -14 20 -30 20 -35 0 -41 -26 -11 -47 65 -46
74 -56 74 -77 0 -40 -58 -74 -106 -62 -20 5 -24 13 -24 41 0 41 15 46 24 9 6
-21 11 -25 39 -22 45 4 41 25 -13 63 -47 33 -61 65 -39 92 24 29 80 41 107 24z
m168 3 c16 -4 19 -12 16 -35 -5 -34 -17 -38 -25 -8 -4 16 -12 20 -34 17 -41
-4 -35 -27 17 -63 53 -37 62 -71 29 -101 -21 -19 -99 -27 -114 -12 -9 9 4 68
15 68 5 0 10 -10 12 -22 2 -18 10 -23 33 -23 46 0 42 26 -10 63 -49 35 -59 67
-27 94 29 26 53 32 88 22z m572 -10 c15 -11 22 -25 22 -50 l0 -34 -60 0 c-57
0 -60 -1 -60 -24 0 -40 27 -59 77 -53 50 5 56 -6 12 -28 -64 -34 -129 11 -129
90 0 83 80 140 138 99z m127 -5 c-9 -13 2 -11 35 6 37 19 77 6 86 -30 3 -14 3
-50 0 -79 -6 -46 -5 -56 11 -64 23 -14 17 -18 -34 -25 -45 -5 -53 2 -28 23 15
13 21 102 9 134 -7 18 -36 21 -65 6 -16 -9 -19 -22 -19 -75 0 -51 3 -65 15
-65 8 0 15 -4 15 -10 0 -5 -20 -10 -45 -10 -25 0 -45 5 -45 10 0 6 5 10 10 10
6 0 10 32 10 75 0 43 -4 75 -10 75 -23 0 -8 29 18 32 32 4 44 0 37 -13z m313
5 c15 -11 22 -25 22 -50 l0 -34 -64 0 -65 0 10 -32 c12 -42 25 -50 77 -45 50
5 54 -6 11 -28 -64 -34 -129 11 -129 90 0 83 80 140 138 99z m124 -16 c-5 -22
-4 -22 27 5 38 31 51 28 51 -13 0 -33 -17 -49 -26 -26 -3 9 -12 16 -20 16 -20
0 -34 -34 -34 -85 0 -38 4 -48 20 -52 38 -10 20 -23 -32 -23 -49 0 -50 1 -35
18 24 27 24 137 0 151 -20 11 -10 27 22 33 28 6 34 1 27 -24z m236 4 c9 -12
11 -36 6 -86 l-7 -69 27 5 c30 6 32 1 9 -24 -20 -22 -31 -23 -54 -2 -15 14
-20 14 -41 1 -30 -20 -65 -6 -74 28 -8 34 7 50 61 64 44 11 52 22 39 55 -7 18
-59 22 -69 6 -7 -11 -25 -4 -25 9 0 4 15 15 33 24 36 18 76 14 95 -11z m297
-162 c8 0 15 -4 15 -10 0 -5 -13 -10 -29 -10 -16 0 -36 -3 -45 -6 -11 -4 -16
-1 -16 10 0 9 5 16 10 16 6 0 10 31 10 74 0 60 -3 75 -17 80 -21 8 -6 23 27
28 25 3 25 3 28 -89 2 -74 6 -93 17 -93z m180 178 c29 -13 55 -55 55 -88 0
-38 -28 -89 -59 -104 -42 -22 -65 -20 -100 10 -27 22 -31 32 -31 74 0 51 25
94 64 110 29 12 41 12 71 -2z m150 -9 c-9 -13 2 -11 35 6 38 20 77 6 86 -30 4
-15 4 -51 0 -80 -5 -45 -3 -56 11 -64 23 -13 17 -17 -34 -24 -45 -5 -53 2 -28
23 12 10 15 29 13 79 -3 59 -5 66 -25 69 -12 2 -31 -2 -42 -8 -18 -9 -21 -20
-21 -75 0 -51 3 -65 15 -65 8 0 15 -4 15 -10 0 -5 -20 -10 -45 -10 -49 0 -53
4 -30 26 10 10 15 35 15 69 0 34 -5 59 -15 69 -22 22 -18 34 13 38 32 4 44 0
37 -13z m311 8 c5 -5 -9 -57 -16 -57 -4 0 -10 9 -13 21 -4 16 -12 20 -34 17
-41 -4 -35 -27 17 -63 53 -37 62 -71 29 -101 -20 -18 -99 -28 -113 -13 -8 8 5
69 15 69 4 0 9 -10 11 -22 2 -18 11 -24 34 -26 53 -5 50 22 -7 62 -65 47 -65
94 1 119 13 5 69 1 76 -6z m253 -3 c21 -15 23 -23 19 -88 -3 -68 -2 -71 20
-70 26 1 27 -4 5 -28 -20 -22 -27 -22 -47 -3 -14 14 -18 14 -40 0 -28 -19 -58
-9 -76 25 -17 31 3 56 55 69 42 11 46 14 43 39 -2 21 -9 28 -31 30 -16 2 -35
-2 -43 -9 -11 -9 -14 -8 -14 5 0 10 14 23 33 31 41 18 48 18 76 -1z m151 1 c0
-13 5 -12 34 2 32 15 37 15 60 -1 24 -15 26 -22 26 -96 0 -64 3 -80 15 -80 8
0 15 -4 15 -10 0 -5 -13 -10 -29 -10 -16 0 -36 -3 -45 -6 -11 -4 -16 -1 -16
10 0 9 5 16 10 16 6 0 10 30 10 70 0 76 -8 88 -54 76 -21 -5 -25 -14 -31 -68
-6 -51 -5 -64 9 -73 26 -19 19 -25 -31 -25 -44 0 -45 1 -30 18 24 26 24 152 1
152 -24 0 -11 23 17 31 37 11 39 10 39 -6z m1035 -74 c-6 -80 -5 -90 11 -99
24 -14 18 -18 -33 -25 -45 -5 -53 2 -28 23 23 19 21 145 -2 154 -20 8 -7 23
27 29 14 2 27 5 29 6 2 0 0 -39 -4 -88z m252 -101 c32 0 -2 -18 -39 -21 -40
-4 -61 7 -34 17 24 9 24 149 -1 158 -21 8 -6 23 27 28 25 3 25 3 28 -89 2 -79
5 -93 19 -93z m270 0 c30 0 0 -17 -39 -23 -29 -4 -38 -2 -38 9 0 8 5 14 10 14
6 0 10 31 10 74 0 60 -3 75 -17 80 -21 8 -6 23 27 28 25 3 25 3 28 -89 2 -79
5 -93 19 -93z m181 174 c15 -11 22 -25 22 -50 l0 -34 -65 0 c-36 0 -65 -2 -65
-4 0 -1 5 -17 11 -34 12 -36 37 -47 85 -37 43 8 45 -9 3 -31 -37 -18 -74 -12
-106 18 -31 29 -32 104 -2 142 36 45 80 56 117 30z m176 10 c21 -8 22 -64 1
-64 -8 0 -15 9 -15 21 0 16 -5 20 -27 17 -45 -5 -40 -32 11 -62 66 -39 72 -82
15 -111 -54 -28 -99 -16 -99 25 0 39 18 47 30 15 8 -21 16 -26 37 -23 44 5 40
32 -10 61 -68 40 -74 86 -14 112 36 16 49 18 71 9z m-8509 -601 c62 -108 211
-329 298 -443 420 -548 960 -996 1577 -1305 426 -213 903 -363 1386 -434 383
-57 920 -55 1317 4 1072 161 2060 707 2769 1532 161 187 355 457 463 646 39
66 40 67 82 67 24 0 43 -3 43 -6 0 -8 -76 -138 -137 -232 -297 -460 -692 -883
-1128 -1208 -709 -527 -1530 -833 -2428 -905 -193 -15 -665 -7 -847 15 -758
92 -1438 340 -2055 749 -452 300 -876 711 -1199 1160 -98 137 -266 403 -266
421 0 3 19 6 43 6 42 0 43 -1 82 -67z"/>
<path d="M7418 6720 c-91 -49 -132 -142 -132 -300 -1 -92 3 -112 25 -161 45
-95 141 -130 262 -95 l57 17 0 263 c0 232 -2 265 -16 277 -10 8 -46 15 -88 16
-56 3 -79 -1 -108 -17z"/>
<path d="M12155 6726 c-82 -37 -135 -136 -143 -266 -8 -155 25 -245 108 -288
38 -20 55 -23 110 -18 36 2 80 10 98 16 l32 12 0 264 0 263 -30 16 c-36 19
-134 19 -175 1z"/>
<path d="M6354 6721 c-89 -55 -128 -151 -122 -304 3 -90 7 -108 33 -156 35
-63 83 -98 147 -107 169 -23 284 170 237 398 -25 122 -97 188 -205 188 -40 0
-69 -6 -90 -19z"/>
<path d="M8165 6723 c-70 -36 -122 -112 -138 -201 l-7 -32 188 2 187 3 -3 59
c-8 122 -63 187 -160 186 -20 -1 -50 -8 -67 -17z"/>
<path d="M10715 6728 c-46 -25 -96 -85 -116 -138 -16 -42 -21 -78 -21 -150 1
-145 38 -227 125 -269 113 -55 238 8 284 144 21 62 23 201 4 267 -15 53 -68
121 -112 143 -33 17 -135 19 -164 3z"/>
<path d="M11408 6711 c-36 -23 -53 -44 -79 -97 -32 -65 -34 -74 -34 -174 1
-88 5 -114 24 -158 77 -172 279 -176 366 -7 27 52 30 70 33 161 4 121 -12 185
-61 241 -62 71 -168 85 -249 34z"/>
<path d="M12940 5743 c-57 -20 -49 -143 10 -143 43 0 50 10 50 75 0 71 -12 85
-60 68z"/>
<path d="M13501 5726 c-7 -9 -11 -38 -9 -73 3 -55 5 -58 30 -61 56 -7 90 73
52 126 -17 25 -56 29 -73 8z"/>
<path d="M8948 5752 c-10 -27 -18 -52 -18 -56 0 -3 16 -6 35 -6 34 0 35 1 29
28 -4 15 -12 40 -18 55 l-11 28 -17 -49z"/>
<path d="M13277 5753 c-23 -63 -23 -63 19 -63 27 0 35 4 31 14 -3 8 -11 33
-17 55 -6 23 -12 41 -13 41 -2 0 -11 -21 -20 -47z"/>
<path d="M5697 5732 c-21 -24 -22 -90 -1 -120 36 -52 102 -6 91 64 -11 66 -56
94 -90 56z"/>
<path d="M6396 5728 c-20 -28 -16 -31 33 -23 43 7 49 13 29 33 -19 19 -45 14
-62 -10z"/>
<path d="M7302 5738 c-7 -7 -12 -24 -12 -38 0 -52 61 -71 82 -25 21 46 -36 97
-70 63z"/>
<path d="M7301 5546 c-23 -27 -9 -51 30 -54 58 -5 94 42 42 54 -16 3 -35 8
-44 10 -9 3 -22 -2 -28 -10z"/>
<path d="M7926 5728 c-20 -28 -16 -31 33 -23 43 7 49 13 29 33 -19 19 -45 14
-62 -10z"/>
<path d="M8137 5648 c-18 -6 -27 -16 -25 -26 7 -37 68 -20 68 19 0 21 -3 22
-43 7z"/>
<path d="M9516 5728 c-31 -44 -14 -123 29 -134 59 -15 89 73 44 130 -25 32
-53 33 -73 4z"/>
<path d="M10466 5734 c-27 -26 -19 -37 22 -29 44 8 46 10 39 30 -8 20 -41 19
-61 -1z"/>
<path d="M10906 5734 c-27 -26 -19 -37 22 -29 44 8 46 10 39 30 -8 20 -41 19
-61 -1z"/>
<path d="M11277 5648 c-18 -6 -27 -16 -25 -26 7 -37 68 -20 68 19 0 21 -3 22
-43 7z"/>
<path d="M11746 5734 c-21 -20 -21 -93 0 -122 18 -26 56 -29 75 -5 8 9 14 36
14 60 0 35 -5 49 -24 64 -28 23 -45 24 -65 3z"/>
<path d="M12483 5649 c-35 -10 -38 -15 -24 -38 6 -9 18 -11 35 -7 19 5 26 13
26 31 0 14 -1 25 -2 24 -2 0 -18 -5 -35 -10z"/>
<path d="M14348 5739 c-10 -5 -18 -17 -18 -26 0 -12 7 -14 38 -8 44 8 46 10
39 30 -7 17 -34 19 -59 4z"/>
</g>
</svg>
